<svg width="680" height="109" viewBox="0 0 680 109" fill="none" xmlns="http://www.w3.org/2000/svg">
<path d="M33.0335 108.78C46.7443 108.78 59.2495 104.667 70.5491 96.4404C76.4116 91.8543 81.0686 86.2991 84.5199 79.7746C87.9713 73.2029 89.7442 66.2293 89.8388 58.8538C89.7915 51.1947 87.9476 44.0084 84.3072 37.2948C80.6667 30.5339 75.7497 24.9078 69.5562 20.4163C62.8899 15.6412 55.5145 12.4971 47.4298 10.9842C43.6948 10.3696 29.9131 10.0623 6.08465 10.0623H0.836719V12.8281C3.43704 13.4427 5.56458 14.7665 7.21934 16.7995C8.87409 18.7852 9.70147 21.1255 9.70147 23.8204V94.8802C9.70147 97.5751 8.87409 99.939 7.21934 101.972C5.56458 104.005 3.43704 105.329 0.836719 105.943V108.638C0.836719 108.686 10.3397 108.709 29.3457 108.709L33.0335 108.78ZM26.8636 106.227C24.8306 106.227 23.0813 105.518 21.6157 104.1C20.1973 102.634 19.4881 100.885 19.4881 98.8516V19.9199C19.4881 17.8869 20.1973 16.1612 21.6157 14.7429C23.0813 13.2772 24.8306 12.5444 26.8636 12.5444H35.5156C40.1016 12.5444 44.6404 13.2536 49.1319 14.6719C57.1692 17.4614 63.8828 22.1656 69.2726 28.7846C76.3644 38.2404 79.9103 48.7126 79.9103 60.2013C79.9103 75.425 74.5678 87.7411 63.8828 97.1496C57.5002 102.208 49.5101 105.069 39.9125 105.731C35.6574 106.062 31.3078 106.227 26.8636 106.227ZM117.993 108.426C123.383 108.426 128.253 106.605 132.602 102.965C132.602 102.965 132.791 102.799 133.17 102.468C133.595 102.137 134.068 101.736 134.588 101.263C135.108 100.79 135.794 100.175 136.645 99.4189V108.142L146.502 108.071V85.9445C146.502 82.1622 146.479 77.458 146.431 71.8318C146.431 66.2057 146.219 62.3997 145.793 60.414C143.051 52.6131 137.661 47.5779 129.624 45.3085C127.78 44.8357 125.936 44.5993 124.092 44.5993C121.35 44.5993 118.655 45.1194 116.008 46.1595C111.847 48.1452 108.112 50.8874 104.802 54.386C103.573 55.6153 102.793 57.01 102.462 58.5702C102.368 58.8538 102.32 59.1139 102.32 59.3503C102.32 60.5795 103.053 61.6669 104.519 62.6125C105.228 62.9907 105.937 63.1798 106.646 63.1798C107.356 63.1798 108.088 62.9907 108.845 62.6125C110.216 61.7142 110.949 60.4377 111.043 58.7829C110.949 57.8846 110.689 57.01 110.263 56.159C109.838 55.3079 109.625 54.4097 109.625 53.4641C109.672 51.9512 110.807 50.4619 113.029 48.9962C115.724 47.3415 118.561 46.5141 121.539 46.5141C126.692 46.5141 130.806 48.5235 133.879 52.5421C135.723 55.7098 136.645 59.1375 136.645 62.8253L136.574 77.3634L132.602 73.8885C128.111 70.248 122.059 68.7351 114.447 69.3497C106.883 69.9643 101.28 73.4157 97.6397 79.7037C96.2687 82.3986 95.5831 85.1644 95.5831 88.0011C95.5831 89.845 95.8668 91.7125 96.4341 93.6037C98.0416 98.3788 100.831 102.043 104.802 104.596C108.774 107.149 113.171 108.426 117.993 108.426ZM120.475 106.014C116.835 106.014 113.644 104.832 110.901 102.468C107.214 98.7334 105.37 93.9346 105.37 88.0721C105.37 82.3986 107.474 77.6707 111.682 73.8885C114.282 71.95 117.213 70.9808 120.475 70.9808C123.407 70.9808 126.125 71.7373 128.631 73.2502C133.832 76.9379 136.432 81.9967 136.432 88.4266C136.432 93.9582 134.375 98.6388 130.262 102.468C127.425 104.785 124.163 105.967 120.475 106.014ZM167.778 108.142V105.021C166.17 104.076 165.366 102.658 165.366 100.766V76.9379C165.366 72.3992 166.17 68.0732 167.778 63.9599C170 59.0902 173.238 55.0479 177.493 51.833C179.668 50.1309 182.079 48.9726 184.727 48.358C185.531 48.2162 186.287 48.1452 186.996 48.1452C190.022 48.1452 192.599 49.4218 194.726 51.9748C195.767 53.2513 197.043 53.8896 198.556 53.8896C199.974 53.8896 201.156 53.3695 202.102 52.3294C202.953 51.4311 203.426 50.3437 203.52 49.0672C203.52 47.9798 203.213 46.9869 202.598 46.0886C201.984 45.1903 201.156 44.623 200.116 44.3866C199.218 44.1975 198.32 44.1029 197.421 44.1029C188.155 44.1029 180.141 47.0342 173.38 52.8967C171.063 55.0243 168.392 58.0737 165.366 62.0452V51.4784C165.366 49.6345 166.17 48.1925 167.778 47.1524V44.032H152.176V47.0815C152.79 47.3179 153.358 47.6961 153.878 48.2162C155.012 49.3981 155.58 50.7692 155.58 52.3294V99.8444C155.58 102.161 154.445 103.934 152.176 105.163V108.142H167.778ZM219.831 108.426C225.221 108.426 230.091 106.605 234.441 102.965C234.441 102.965 234.63 102.799 235.008 102.468C235.433 102.137 235.906 101.736 236.426 101.263C236.946 100.79 237.632 100.175 238.483 99.4189V108.142L248.34 108.071V85.9445C248.34 82.1622 248.317 77.458 248.27 71.8318C248.27 66.2057 248.057 62.3997 247.631 60.414C244.889 52.6131 239.499 47.5779 231.462 45.3085C229.618 44.8357 227.774 44.5993 225.93 44.5993C223.188 44.5993 220.493 45.1194 217.846 46.1595C213.685 48.1452 209.95 50.8874 206.641 54.386C205.411 55.6153 204.631 57.01 204.3 58.5702C204.206 58.8538 204.159 59.1139 204.159 59.3503C204.159 60.5795 204.891 61.6669 206.357 62.6125C207.066 62.9907 207.775 63.1798 208.485 63.1798C209.194 63.1798 209.927 62.9907 210.683 62.6125C212.054 61.7142 212.787 60.4377 212.881 58.7829C212.787 57.8846 212.527 57.01 212.101 56.159C211.676 55.3079 211.463 54.4097 211.463 53.4641C211.51 51.9512 212.645 50.4619 214.867 48.9962C217.562 47.3415 220.399 46.5141 223.377 46.5141C228.531 46.5141 232.644 48.5235 235.717 52.5421C237.561 55.7098 238.483 59.1375 238.483 62.8253L238.412 77.3634L234.441 73.8885C229.949 70.248 223.897 68.7351 216.286 69.3497C208.721 69.9643 203.118 73.4157 199.478 79.7037C198.107 82.3986 197.421 85.1644 197.421 88.0011C197.421 89.845 197.705 91.7125 198.272 93.6037C199.88 98.3788 202.669 102.043 206.641 104.596C210.612 107.149 215.009 108.426 219.831 108.426ZM222.314 106.014C218.673 106.014 215.482 104.832 212.74 102.468C209.052 98.7334 207.208 93.9346 207.208 88.0721C207.208 82.3986 209.312 77.6707 213.52 73.8885C216.12 71.95 219.051 70.9808 222.314 70.9808C225.245 70.9808 227.963 71.7373 230.469 73.2502C235.67 76.9379 238.27 81.9967 238.27 88.4266C238.27 93.9582 236.213 98.6388 232.1 102.468C229.263 104.785 226.001 105.967 222.314 106.014ZM307.273 108.142V105.092C305.335 104.005 304.366 102.397 304.366 100.27C304.366 91.9489 304.342 85.7318 304.295 81.6185C304.295 77.5053 304.295 74.2903 304.295 71.9737C304.295 69.6097 304.271 67.104 304.224 64.4564V63.6763C304.224 56.679 301.694 51.4784 296.636 48.0743C292.759 45.474 288.504 44.1738 283.87 44.1738C278.717 44.1738 274.225 45.8759 270.396 49.2799C268.978 50.5092 267.748 51.8802 266.708 53.3932V44.032H254.014V47.0815C255.952 48.2162 256.922 49.8236 256.922 51.9039V100.27C256.922 102.35 255.952 103.958 254.014 105.092V108.142H269.687V105.092C267.701 104.005 266.708 102.397 266.708 100.27V65.662C266.708 61.4069 267.63 57.4828 269.474 53.8896C271.554 49.7763 275.337 47.6015 280.821 47.3651C284.272 47.3651 287.416 48.5944 290.253 51.0529C293.137 53.4641 294.579 56.679 294.579 60.6977V100.27C294.579 102.397 293.61 104.005 291.671 105.092V108.142H307.273ZM317.556 21.551C317.982 21.3619 318.786 20.6763 319.968 19.4944C320.157 19.2107 320.346 18.9743 320.535 18.7852C323.23 16.1849 324.955 13.0645 325.712 9.42402C325.807 8.85668 325.854 8.31297 325.854 7.79291C325.854 5.05074 324.79 2.68681 322.662 0.701109L320.819 3.25416C321.15 4.10517 321.315 4.90891 321.315 5.66537C321.315 7.27284 320.464 8.83304 318.762 10.346C317.107 11.8589 315.192 13.0408 313.018 13.8919C313.727 15.0265 315.24 17.5796 317.556 21.551ZM345.569 108.709C347.838 108.709 350.651 108.189 354.008 107.149C357.365 106.062 360.296 103.461 362.802 99.348C364.41 96.4167 365.213 93.4382 365.213 90.4123C365.213 87.9066 364.67 85.4008 363.582 82.895C361.171 78.2145 357.554 74.6686 352.732 72.2573L351.526 71.5482C347.555 69.7516 344.316 67.1749 341.81 63.8181C340.628 61.6906 340.037 59.563 340.037 57.4355C340.037 55.2607 340.628 53.1095 341.81 50.982C342.803 49.3745 344.269 48.0743 346.207 47.0815C348.193 46.0886 350.297 45.5685 352.519 45.5213C354.836 45.5213 356.798 46.1832 358.405 47.507C360.013 48.7835 360.887 50.7456 361.029 53.3932H363.511V44.5993H361.029C361.029 45.3085 360.675 45.6631 359.965 45.6631C359.823 45.6631 359.114 45.4503 357.838 45.0248C355.994 44.4575 354.079 44.1738 352.093 44.1738C346.42 44.2211 341.479 46.1359 337.272 49.9182C333.489 53.5586 331.598 57.7664 331.598 62.5416C331.598 66.3712 332.898 69.9407 335.499 73.2502C338.383 76.6543 342.094 79.3964 346.633 81.4767C349.044 82.5641 351.171 83.9824 353.015 85.7318C354.954 88.0011 355.828 90.956 355.639 94.5965C355.497 98.1897 354.197 101.168 351.739 103.532C349.186 105.565 346.373 106.582 343.3 106.582C338.619 106.582 336.066 104.194 335.64 99.4189H333.158V108.213H335.64C335.64 107.409 336.042 107.007 336.846 107.007L337.272 107.078C340.534 108.165 343.3 108.709 345.569 108.709ZM457.619 107.716C467.879 107.622 477.287 104.785 485.845 99.2062C490.714 95.9439 494.686 92.2089 497.759 88.0011C499.319 86.0627 501.328 84.7862 503.787 84.1716V81.4058H490.951V84.5971C492.464 85.4481 493.22 86.7955 493.22 88.6394C493.22 91.0033 490.431 94.0292 484.852 97.7169C477.193 102.681 468.943 105.163 460.102 105.163C451.591 105.163 443.672 102.728 436.344 97.8587C430.103 93.5091 425.233 87.9302 421.735 81.1221C418.094 74.0776 416.274 66.7494 416.274 59.1375C416.274 51.6675 417.929 44.5284 421.238 37.7203C424.548 30.8649 429.252 25.1914 435.351 20.7C442.868 15.452 451.071 12.8044 459.96 12.7572C468.895 12.7572 477.193 15.2393 484.852 20.2036C490.289 23.8913 493.007 26.7516 493.007 28.7846C493.007 30.3448 492.322 31.5031 490.951 32.2596V35.2382H503.787V32.5433C500.856 31.9287 498.397 30.463 496.412 28.1464C495.419 26.9171 494.355 25.7588 493.22 24.6714C487.594 19.2816 481.046 15.3811 473.576 12.9699C468.092 11.2206 462.536 10.346 456.91 10.346C454.83 10.346 452.75 10.4641 450.669 10.7005C435.824 12.7808 423.981 19.8726 415.14 31.9759C409.466 40.297 406.629 49.4927 406.629 59.563C406.629 69.917 409.75 79.2073 415.991 87.4338C424.028 97.646 434.406 104.076 447.124 106.723C450.338 107.385 453.601 107.716 456.91 107.716H457.619ZM525.133 108.142V105.092C523.148 104.005 522.155 102.397 522.155 100.27V18.7143C522.155 16.5867 523.148 14.9556 525.133 13.8209V10.8424H509.46V13.8919C511.399 14.9793 512.368 16.5631 512.368 18.6434V100.341C512.368 102.421 511.399 104.005 509.46 105.092V108.142H525.133ZM563.642 108.426C564.729 108.426 565.793 108.378 566.833 108.284C573.263 107.48 578.653 104.903 583.002 100.554C587.541 96.1094 589.81 89.6322 589.81 81.1221V53.6059C589.81 50.5801 591.347 48.358 594.42 46.9396V44.1029H582.719V46.9396C585.792 48.358 587.328 50.5801 587.328 53.6059V81.1221C587.328 89.3959 584.799 95.8494 579.74 100.483C575.721 104.029 571.112 105.825 565.911 105.872C564.493 105.872 563.098 105.731 561.727 105.447C556.905 104.218 553.028 101.523 550.096 97.3623C548.442 94.8093 547.401 92.138 546.976 89.3486C546.55 86.5591 546.338 83.817 546.338 81.1221V54.0314C546.338 50.7692 548.016 48.4053 551.373 46.9396V44.1029H530.878V46.8687C534.66 48.4289 536.551 51.0292 536.551 54.6697V81.1221C536.551 90.0578 539.742 97.1732 546.125 102.468C551.373 106.44 557.212 108.426 563.642 108.426ZM646.474 108.638C652.384 108.638 657.963 107.196 663.211 104.312C668.553 101.192 672.737 96.9132 675.763 91.4761C678.363 86.7482 679.664 81.7367 679.664 76.4415C679.333 67.4586 675.952 59.9413 669.522 53.8896C662.856 47.8852 655.126 44.883 646.332 44.883C639.997 44.883 634.016 46.4668 628.39 49.6345C625.317 51.3365 622.551 53.4641 620.092 56.0171C617.492 59.043 615.577 61.5015 614.348 63.3926V19.6362C614.348 16.9886 615.648 15.0265 618.249 13.75V10.8424H600.094V13.75C603.025 15.0738 604.49 17.2014 604.49 20.1326V98.8516C604.49 101.783 603.025 103.91 600.094 105.234V108.142H618.249V105.234C615.648 103.958 614.348 101.996 614.348 99.348V90.3414C617.232 94.2183 620.423 97.6696 623.922 100.695C630.021 105.991 637.538 108.638 646.474 108.638ZM642.857 106.44C637.42 106.44 632.29 104.832 627.468 101.617C622.645 98.4024 619.052 93.911 616.688 88.143C615.317 84.4552 614.632 80.7439 614.632 77.0088C614.632 73.6521 615.506 69.3733 617.256 64.1727C619.005 58.9248 623.189 54.386 629.808 50.5564C633.827 48.4289 638.129 47.3651 642.715 47.3651C648.247 47.3651 653.235 48.8544 657.679 51.833C663.92 56.419 667.797 62.5889 669.309 70.3426C669.782 72.5647 670.019 74.7868 670.019 77.0088C670.019 80.7439 669.38 84.4316 668.104 88.0721C666.165 93.0836 663.163 97.2441 659.097 100.554C654.322 104.478 648.909 106.44 642.857 106.44Z" fill="#C3C720"/>
</svg>
